HIERARCHY
ROOT Hips
{
    OFFSET 11.39964485168457 82.01050567626953 -16.963790893554688
    CHANNELS 6 Xposition Yposition Zposition Zrotation Xrotation Yrotation
    JOINT RightUpLeg
    {
        OFFSET -11.39964485168457 0.0 0.0
        CHANNELS 3 Zrotation Xrotation Yrotation
        JOINT RightLeg
        {
            OFFSET 0.0 -39.60102844238281 0.0
            CHANNELS 3 Zrotation Xrotation Yrotation
            JOINT RightFoot
            {
                OFFSET 0.0 -42.40947723388672 0.0
                CHANNELS 3 Zrotation Xrotation Yrotation
                End Site RightFoot_End
                {
                    OFFSET 0.0 0.0 16.963790893554688
                }
            }
        }
    }
    JOINT LeftUpLeg
    {
        OFFSET 11.39964485168457 0.0 0.0
        CHANNELS 3 Zrotation Xrotation Yrotation
        JOINT LeftLeg
        {
            OFFSET 0.0 -39.60102844238281 0.0
            CHANNELS 3 Zrotation Xrotation Yrotation
            JOINT LeftFoot
            {
                OFFSET 0.0 -42.40947723388672 0.0
                CHANNELS 3 Zrotation Xrotation Yrotation
                End Site LeftFoot_End
                {
                    OFFSET 0.0 0.0 16.963790893554688
                }
            }
        }
    }
    JOINT Spine
    {
        OFFSET 0.0 22.50270652770996 0.0
        CHANNELS 3 Zrotation Xrotation Yrotation
        JOINT Spine3
        {
            OFFSET 0.0 25.518030166625977 0.0
            CHANNELS 3 Zrotation Xrotation Yrotation
            JOINT Neck
            {
                OFFSET 0.0 15.89531135559082 0.0
                CHANNELS 3 Zrotation Xrotation Yrotation
                End Site Head
                {
                    OFFSET 0.0 6.358124732971191 0.0
                }
            }
            JOINT LeftArm
            {
                OFFSET 15.465246200561523 0.0 0.0
                CHANNELS 3 Zrotation Xrotation Yrotation
                JOINT LeftForeArm
                {
                    OFFSET 26.370182037353516 0.0 0.0
                    CHANNELS 3 Zrotation Xrotation Yrotation
                    JOINT LeftHand
                    {
                        OFFSET 26.089740753173828 0.0 0.0
                        CHANNELS 3 Zrotation Xrotation Yrotation
                        End Site LeftWristEndSite
                        {
                            OFFSET 10.435895919799805 0.0 0.0
                        }
                    }
                }
            }
            JOINT RightArm
            {
                OFFSET -15.465246200561523 0.0 0.0
                CHANNELS 3 Zrotation Xrotation Yrotation
                JOINT RightForeArm
                {
                    OFFSET -26.370182037353516 0.0 0.0
                    CHANNELS 3 Zrotation Xrotation Yrotation
                    JOINT RightHand
                    {
                        OFFSET -26.089740753173828 0.0 0.0
                        CHANNELS 3 Zrotation Xrotation Yrotation
                        End Site RightWristEndSite
                        {
                            OFFSET -10.435895919799805 0.0 0.0
                        }
                    }
                }
            }
        }
    }
}
MOTION
Frames: 7
Frame Time: 0.03333333333333333
-0.0 82.05623626708984 0.0 -0.028716812055430196 -17.53145391437377 13.66295493815419 -17.33009612493993 10.535447757819787 1.0286812759477344 12.037074534371362 21.953824150248863 1.7214477315363679 -1.5902773407317584e-15 2.758691436281349e-33 -1.987846675914698e-16 16.626996116600143 21.241989300053675 -3.8649776079747924 9.991615002192201 12.251745998494654 -5.660436648862476 0.0 0.0 3.975693351829396e-16 -4.111260827244887 -9.154245113599337 -0.6946703973606633 -8.880380834536289e-07 -3.3964612997726045e-06 -13.546601149521033 -2.7859396578664994 -5.104703859506467 -27.873548392344965 -107.1536024675155 -37.163476136862755 -47.93847713672142 -97.19661570215902 6.893290605395899e-07 1.718818474145844e-07 1.7655625192200634e-31 6.3611093629270335e-15 -3.1805546814635168e-15 33.42162761185384 -33.56432774593569 20.058516956922322 150.1617698197834 2.200895452600198e-06 2.1547130563219206e-06 3.975693351829396e-16 0.0 0.0
-0.0 82.05623626708984 0.0 -0.6219397095826759 -19.78329482282572 11.14440510192451 -15.720061671931482 13.190672776832587 1.542273010089919 9.934359759805885 22.753431382527957 2.492055108162033 1.5902773407317584e-15 -9.939233379573486e-17 2.3854160110976376e-15 15.464628862197953 22.871989868235673 -3.057752720802286 10.135244227068993 13.313810695515492 -5.511643733119272 2.344887720839147e-32 -3.379339349054986e-15 7.951386703658791e-16 -3.303316013924947 -7.759417853902947 -0.6700723135599385 -2.2689851500848236e-07 2.59272122094066e-06 -12.143630258339568 -1.3845064427711415 -4.482382208286922 -25.873573130803187 -104.84932706627049 -38.093027259421575 -46.46219227336974 -97.05063949561709 -3.806905422313423e-06 -2.6633310447220807e-07 1.5902773407317582e-15 -6.361109362927033e-15 8.827812596100317e-32 28.70880744827226 -50.526659775814494 -19.944140778550533 149.74246260888467 1.4884763998709744e-06 -2.1590871480632174e-07 3.1805546814635168e-15 6.3611093629270335e-15 -6.3611093629270335e-15
-0.0 82.05623626708984 0.0 -0.3202278708683263 -20.04848779970962 7.72442141630346 -18.840605253153903 9.711893827926888 -0.42074589079684377 7.425740815178441 24.65964189976184 4.729367477220234 0.0 1.6896696745274934e-15 0.0 13.775613879585826 23.977568408528107 -1.8169001596478163 9.807726943629886 15.820478819562439 -6.228239304250154 6.896728590703373e-34 -1.987846675914698e-16 3.975693351829396e-16 -4.237054528554077 -9.10795243064122 -0.8033546980030045 1.1468864682641921e-06 3.478230370466115e-06 -11.311406510012027 -1.2652773401179918 -5.396138014108894 -24.915956074102613 -100.39959738975722 -42.152749653654816 -44.15746734873317 -100.03791460490166 1.6964440693269838e-06 -3.133246292296562e-06 1.5902773407317584e-15 6.361109362927033e-15 -3.1805546814635164e-15 39.18475758256385 -50.699062709232 1.7660245161819863 133.32378713958116 -1.0051919492627427e-06 2.249269748759948e-06 7.951386703658792e-16 0.0 0.0
-0.0 82.05623626708984 0.0 1.0758338265503498 -17.21237509072584 -2.607537722728575 -23.21342655103397 -1.6393964976327584 -6.426800068843228 0.1853925235517099 28.4403212553523 9.368488371555609 2.4828222926532145e-32 1.7890620083232284e-15 -1.5902773407317584e-15 5.88065629116661 21.530112886103506 2.258896805455241 9.246558100553134 19.50360422294941 -5.995996057831668 0.0 0.0 3.975693351829395e-16 -4.3046082652092075 -12.958759186677733 -0.4607504009864514 3.8615792020646686e-07 -4.278119026496219e-06 -5.2417693313436 1.2275580309244885 -4.355407565889383 -20.81713536757653 -97.76445062739528 -48.50758024535795 -42.70227673676767 -104.387245182376 -1.8119010773970913e-06 -1.2617675385983537e-06 1.5902773407317592e-15 -6.361109362927035e-15 3.1805546814635176e-15 62.39556048769852 -55.84760654163339 26.535614886591546 113.64148509574548 3.7894410759779043e-06 -2.435867502964762e-06 -1.5902773407317584e-15 6.3611093629270335e-15 8.827812596100317e-32
-0.0 82.05623626708984 0.0 2.700378927639891 -13.792277062131536 -5.191150241354244 -26.06363913910973 -10.143498511002164 -10.919278514997961 -2.590590246998657 30.76738127772992 12.090075909189398 3.793200724886855e-33 -1.987846675914698e-16 2.1866313435061676e-15 3.0120056830868505 15.464980016939052 4.5101832216002276 9.110541068460495 22.62443461440937 -6.137108361864217 1.5902773407317584e-15 4.969616689786745e-17 -6.896728590703373e-34 -4.829587018117511 -15.445969993750506 -0.46200198063135123 -4.6631860031394023e-07 -8.467506927095554e-07 -5.4084953234095465 1.2572586338659706 -2.8979908731203166 -16.412272932527962 -100.28220545405559 -51.145202539101334 -46.4211597406513 -104.50758211821082 -2.263878066238501e-06 -3.138304188044381e-06 1.5902773407317584e-15 6.361109362927033e-15 -3.1805546814635164e-15 74.68109972202646 -49.93261453860794 47.737969849088 97.6774150352592 1.9174310471875108e-06 2.3073210484695252e-06 9.54166404439055e-15 -6.3611093629270335e-15 5.29668755766019e-31
-0.0 82.05623626708984 0.0 3.5933686323133918 -12.554497037796107 -10.744402198165462 -25.663257106353072 -13.909835312209156 -11.962792852494617 -5.866946108962509 30.851202549826052 12.302041606727027 -1.3793457181406746e-33 -3.9756933518293955e-16 -3.9756933518293955e-16 -0.09881748741136237 13.157481969566021 5.481219018517176 8.241933797197461 24.085672959502507 -5.618687245906549 -3.1805546814635168e-15 -3.3793393490549868e-15 -3.975693351829397e-16 -3.7436803308290196 -16.72990738039822 0.3586262602346046 3.0377779211084524e-07 -1.4000771571570768e-08 -4.0808571696690645 0.3654307164684131 -1.3663323563254846 -11.956312012752093 -105.55307023495845 -51.66731292105728 -52.44566935816394 -100.05949305775599 -2.9720869763945383e-06 -6.862650972764948e-07 0.0 0.0 3.1805546814635168e-15 80.73125408585982 -49.562328569433156 61.630138861614626 88.7406232270119 -2.7212207934063787e-06 4.178554537542615e-06 3.1805546814635168e-15 6.3611093629270335e-15 -1.7655625192200634e-31
-0.0 82.05623626708984 0.0 3.7449061732425317 -12.880675255069823 -14.31224933483726 -24.950640252397854 -14.195129229030059 -11.924268350516517 -7.794937330033422 30.75966652509701 12.904357963269002 3.180554681463516e-15 1.1034765745125397e-32 3.975693351829395e-16 -1.6710307952162116 12.011882104125599 6.023152307132657 7.56793990462999 26.036854743741213 -5.097454166027823 -1.5902773407317584e-15 -3.3793393490549868e-15 -4.689775441678294e-32 -3.091273966339722 -18.191582534112932 0.6399937746110804 1.2115412885868e-08 1.1146003339087481e-06 -1.8213478724803627 0.20387375891672027 0.4186820709396668 -10.289904558137794 -101.89258954407288 -53.667172766259014 -51.19454480940323 -101.16470998968308 -2.7862085027135234e-06 -2.5220721524877925e-06 1.7655625192200634e-31 6.361109362927032e-15 -3.180554681463516e-15 80.93527990811073 -52.74134807893095 66.33673546120046 87.44703848656502 1.3496592212307552e-06 -6.280242520009912e-06 0.0 0.0 0.0
